<?xml version="1.0" standalone="no"?>
<!DOCTYPE svg PUBLIC "-//W3C//DTD SVG 20010904//EN"
 "http://www.w3.org/TR/2001/REC-SVG-20010904/DTD/svg10.dtd">
<svg version="1.0" xmlns="http://www.w3.org/2000/svg"
 width="512.000000pt" height="512.000000pt" viewBox="0 0 512.000000 512.000000"
 preserveAspectRatio="xMidYMid meet">
<metadata>
Created by potrace 1.11, written by Peter Selinger 2001-2013
</metadata>
<g transform="translate(0.000000,512.000000) scale(0.100000,-0.100000)"
fill="#000000" stroke="none">
<path d="M1140 5113 c-211 -23 -451 -118 -619 -243 -255 -191 -427 -462 -497
-780 -18 -81 -19 -156 -19 -1530 0 -1374 1 -1449 19 -1530 57 -261 178 -481
362 -662 179 -176 390 -289 644 -344 81 -18 156 -19 1530 -19 1374 0 1449 1
1530 19 261 57 481 178 662 362 176 179 289 390 344 644 18 81 19 156 19 1530
0 1374 -1 1449 -19 1530 -111 509 -471 875 -986 1003 -84 21 -94 21 -1510 23
-784 0 -1441 -1 -1460 -3z"/>
</g>
</svg>
