<?xml version="1.0" standalone="no"?>
<!DOCTYPE svg PUBLIC "-//W3C//DTD SVG 20010904//EN"
 "http://www.w3.org/TR/2001/REC-SVG-20010904/DTD/svg10.dtd">
<svg version="1.0" xmlns="http://www.w3.org/2000/svg"
 width="1024.000000pt" height="1024.000000pt" viewBox="0 0 1024.000000 1024.000000"
 preserveAspectRatio="xMidYMid meet">
<metadata>
Created by potrace 1.11, written by Peter Selinger 2001-2013
</metadata>
<g transform="translate(0.000000,1024.000000) scale(0.100000,-0.100000)"
fill="#000000" stroke="none">
<path d="M5008 7406 c-1379 -221 -2510 -405 -2513 -408 -4 -3 21 -176 54 -385
l61 -378 0 -392 0 -393 55 0 55 0 0 -1510 0 -1510 2475 0 2475 0 0 1510 0
1510 40 0 40 0 0 390 0 390 -2517 1 c-1535 1 -2506 5 -2488 10 17 5 1130 185
2475 399 1345 215 2450 391 2456 393 7 1 -9 125 -47 367 -71 441 -64 410 -92
409 -12 -1 -1150 -182 -2529 -403z m2121 -60 c116 -165 209 -301 207 -303 -2
-3 -94 -19 -205 -37 l-201 -32 -207 295 c-115 162 -209 299 -211 305 -2 10
362 76 395 72 6 0 107 -136 222 -300z m-939 -147 c116 -165 209 -303 207 -306
-5 -4 -399 -72 -403 -69 -9 7 -414 589 -416 598 -2 8 53 22 187 44 105 18 195
32 201 33 7 1 107 -134 224 -300z m-935 -154 c117 -165 211 -301 210 -303 -4
-5 -366 -62 -392 -62 -16 0 -66 64 -230 296 -114 163 -208 299 -208 303 0 6
370 70 394 67 8 0 110 -136 226 -301z m-938 -147 c117 -166 211 -303 209 -305
-5 -5 -367 -63 -391 -63 -15 0 -74 77 -227 294 -115 162 -208 298 -208 303 0
7 328 67 390 71 9 1 102 -122 227 -300z m-938 -149 c117 -166 210 -303 207
-306 -6 -6 -355 -63 -386 -62 -21 0 -55 43 -228 289 -111 160 -205 296 -208
303 -3 10 42 21 183 44 103 17 195 31 204 32 10 1 93 -108 228 -300z m74 -902
c87 -177 157 -325 157 -329 0 -5 -93 -8 -206 -8 l-205 0 -160 324 c-87 178
-159 326 -159 330 0 3 93 6 208 6 l207 -1 158 -322z m947 1 c88 -177 160 -326
160 -330 0 -4 -93 -8 -207 -8 l-208 1 -158 322 c-86 177 -157 325 -157 330 0
4 92 7 205 7 l206 0 159 -322z m951 -3 c87 -179 159 -327 159 -330 0 -3 -93
-5 -207 -5 l-208 0 -162 330 -162 330 210 0 211 0 159 -325z m950 -1 c87 -179
159 -328 159 -330 0 -2 -94 -4 -208 -4 l-208 0 -161 330 -161 330 209 0 210 0
160 -326z m949 -1 c88 -179 160 -328 160 -330 0 -1 -94 -3 -208 -3 l-208 0
-162 330 -161 330 210 0 210 0 159 -327z m-280 -1873 l0 -890 -1755 0 -1755 0
0 883 c0 486 3 887 7 890 3 4 793 7 1755 7 l1748 0 0 -890z"/>
</g>
</svg>
